<?xml version="1.0" encoding="UTF-8"?>
<!DOCTYPE svg PUBLIC "-//W3C//DTD SVG 1.1//EN" "http://www.w3.org/Graphics/SVG/1.1/DTD/svg11.dtd">
<svg xmlns="http://www.w3.org/2000/svg" version="1.1" width="512px" height="512px" style="shape-rendering:geometricPrecision; text-rendering:geometricPrecision; image-rendering:optimizeQuality; fill-rule:evenodd; clip-rule:evenodd" xmlns:xlink="http://www.w3.org/1999/xlink">
<g><path style="opacity:0.991" fill="#898989" d="M 249.5,66.5 C 258.049,66.1472 266.383,67.3139 274.5,70C 348.997,101.277 423.33,132.944 497.5,165C 511.209,177.341 514.042,191.841 506,208.5C 501.128,216.194 494.295,221.36 485.5,224C 414.167,254 342.833,284 271.5,314C 258.619,317.649 245.953,316.983 233.5,312C 160.003,281.056 86.6694,249.723 13.5,218C -0.836748,204.843 -3.33675,189.676 6,172.5C 9.20121,168.964 12.7012,165.797 16.5,163C 88.915,132.528 161.248,101.862 233.5,71C 238.874,69.1604 244.207,67.6604 249.5,66.5 Z"/></g>
<g><path style="opacity:0.968" fill="#898989" d="M 467.5,252.5 C 469.317,264.459 470.151,276.793 470,289.5C 484.029,297.914 488.362,309.914 483,325.5C 481.077,329.258 478.577,332.591 475.5,335.5C 480.741,339.98 483.908,345.647 485,352.5C 485.667,363.833 485.667,375.167 485,386.5C 483.895,389.937 481.728,392.437 478.5,394C 465.167,394.667 451.833,394.667 438.5,394C 435.417,393.214 433.251,391.381 432,388.5C 431.333,375.5 431.333,362.5 432,349.5C 433.809,344.196 436.642,339.529 440.5,335.5C 432.324,327.466 429.491,317.799 432,306.5C 434.143,298.525 438.976,292.858 446.5,289.5C 447.167,280.167 447.833,270.833 448.5,261.5C 455.045,258.725 461.379,255.725 467.5,252.5 Z"/></g>
<g><path style="opacity:0.988" fill="#898989" d="M 95.5,275.5 C 141.145,294.654 186.812,313.821 232.5,333C 248.939,337.883 265.272,337.55 281.5,332C 325.833,313.167 370.167,294.333 414.5,275.5C 415.667,305.494 415.833,335.494 415,365.5C 411.912,380.908 403.746,392.741 390.5,401C 310.133,444.913 227.8,448.913 143.5,413C 129.888,407.286 117.722,399.452 107,389.5C 101.713,382.258 98.0459,374.258 96,365.5C 95.5,335.502 95.3334,305.502 95.5,275.5 Z"/></g>
</svg>
