<?xml version="1.0" standalone="no"?>
<!DOCTYPE svg PUBLIC "-//W3C//DTD SVG 20010904//EN"
 "http://www.w3.org/TR/2001/REC-SVG-20010904/DTD/svg10.dtd">
<svg version="1.0" xmlns="http://www.w3.org/2000/svg"
 width="512.000000pt" height="512.000000pt" viewBox="0 0 512.000000 512.000000"
 preserveAspectRatio="xMidYMid meet">

<g transform="translate(0.000000,512.000000) scale(0.100000,-0.100000)"
fill="#898989" stroke="none">
<path d="M3751 3731 l-1165 -958 -120 57 c-67 32 -341 164 -610 294 -268 130
-492 236 -496 236 -4 0 -58 -55 -119 -121 l-110 -121 27 -33 c15 -18 342 -395
727 -839 543 -626 702 -803 711 -793 6 6 577 691 1268 1520 l1257 1508 -97
102 c-53 56 -99 103 -103 104 -3 1 -530 -429 -1170 -956z"/>
<path d="M0 2495 l0 -2065 2065 0 2065 0 0 1277 c0 765 -4 1273 -9 1267 -5 -5
-138 -164 -295 -352 l-286 -344 0 -629 0 -629 -1475 0 -1475 0 0 1475 0 1475
1473 -2 1472 -3 3 -73 c2 -40 7 -72 11 -70 5 2 137 109 295 238 l286 235 -3
130 -2 130 -2062 3 -2063 2 0 -2065z"/>
</g>
</svg>
