<?xml version="1.0" standalone="no"?>
<!DOCTYPE svg PUBLIC "-//W3C//DTD SVG 20010904//EN"
 "http://www.w3.org/TR/2001/REC-SVG-20010904/DTD/svg10.dtd">
<svg version="1.0" xmlns="http://www.w3.org/2000/svg"
 width="512.000000pt" height="512.000000pt" viewBox="0 0 512.000000 512.000000"
 preserveAspectRatio="xMidYMid meet">

<g transform="translate(0.000000,512.000000) scale(0.100000,-0.100000)"
fill="#898989" stroke="none">
<path d="M790 4904 c-93 -15 -145 -31 -220 -66 -120 -58 -231 -168 -288 -288
-68 -143 -67 -137 -67 -710 0 -573 -1 -567 67 -710 57 -119 169 -231 289 -288
142 -67 137 -67 709 -67 573 0 567 -1 710 67 119 57 231 169 288 289 67 142
67 137 67 709 0 572 0 567 -67 709 -54 114 -169 231 -278 285 -145 71 -130 69
-685 72 -275 1 -511 0 -525 -2z m984 -436 c53 -16 118 -81 134 -134 17 -59 17
-929 0 -988 -16 -53 -81 -118 -134 -134 -59 -17 -929 -17 -988 0 -53 16 -121
84 -135 134 -7 25 -11 202 -11 494 0 292 4 469 11 494 13 47 85 121 131 135
52 15 941 14 992 -1z"/>
<path d="M3350 4904 c-93 -15 -145 -31 -220 -66 -120 -58 -231 -168 -288 -288
-68 -143 -67 -137 -67 -710 0 -573 -1 -567 67 -710 57 -119 169 -231 289 -288
142 -67 137 -67 709 -67 573 0 567 -1 710 67 119 57 231 169 288 289 67 142
67 137 67 709 0 572 0 567 -67 709 -54 114 -169 231 -278 285 -145 71 -130 69
-685 72 -275 1 -511 0 -525 -2z m984 -436 c53 -16 118 -81 134 -134 17 -59 17
-929 0 -988 -16 -53 -81 -118 -134 -134 -59 -17 -929 -17 -988 0 -53 16 -121
84 -135 134 -15 53 -15 935 0 988 13 47 85 121 131 135 52 15 941 14 992 -1z"/>
<path d="M790 2344 c-93 -15 -145 -31 -220 -66 -120 -58 -231 -168 -288 -288
-68 -143 -67 -137 -67 -710 0 -573 -1 -567 67 -710 57 -119 169 -231 289 -288
142 -67 137 -67 709 -67 573 0 567 -1 710 67 119 57 231 169 288 289 67 142
67 137 67 709 0 572 0 567 -67 709 -54 114 -169 231 -278 285 -145 71 -130 69
-685 72 -275 1 -511 0 -525 -2z m984 -436 c53 -16 118 -81 134 -134 17 -59 17
-929 0 -988 -16 -53 -81 -118 -134 -134 -59 -17 -929 -17 -988 0 -53 16 -121
84 -135 134 -7 25 -11 202 -11 494 0 292 4 469 11 494 13 47 85 121 131 135
52 15 941 14 992 -1z"/>
<path d="M3350 2344 c-93 -15 -145 -31 -220 -66 -120 -58 -231 -168 -288 -288
-68 -143 -67 -137 -67 -710 0 -573 -1 -567 67 -710 57 -119 169 -231 289 -288
142 -67 137 -67 709 -67 573 0 567 -1 710 67 119 57 231 169 288 289 67 142
67 137 67 709 0 572 0 567 -67 709 -54 114 -169 231 -278 285 -145 71 -130 69
-685 72 -275 1 -511 0 -525 -2z m984 -436 c53 -16 118 -81 134 -134 17 -59 17
-929 0 -988 -16 -53 -81 -118 -134 -134 -59 -17 -929 -17 -988 0 -53 16 -121
84 -135 134 -15 53 -15 935 0 988 13 47 85 121 131 135 52 15 941 14 992 -1z"/>
</g>
</svg>
